<svg xmlns="http://www.w3.org/2000/svg" viewBox="0 0 1000 1000"><defs><style>.cls-1{fill:#fff;}</style></defs><g id="final_export" data-name="final export"><path class="cls-1" d="M469.44,380.56l-.53,1,3-.91ZM462,393.43l.12.33v-.34Zm48.43-7.89-.66-1.94-.25.07c-.24.84-.47,1.68-.71,2.52q-2.87,9.85-5.74,19.74c4.42-1.25,8.85-2.46,13.27-3.6Q513.38,393.92,510.42,385.54ZM491.14,636.75l.52.5v-.51Zm9.21,5.37v.43l.33-.08v0Zm24.56-53,.28-.13v0Zm-49.57-86.31a6.45,6.45,0,0,0-2-2.91,5.59,5.59,0,0,0-3.35-1.15l-2.88-.11v16.64l2.88.11a5.26,5.26,0,0,0,3.35-.88,5.71,5.71,0,0,0,2-2.75,11.8,11.8,0,0,0,.69-4.23v-.44A12.2,12.2,0,0,0,475.34,502.78Zm18.25,35.36c-22.15-1.08-44.88-2.19-67.47-1.46L425,554.32c27-3.48,53.89-9.27,80.57-15.61C501.57,538.53,497.57,538.33,493.59,538.14ZM569.78,460c-28.23,1.07-56.76,9.52-86.17,18.32l10.32.5c25.3,1.23,51.36,2.51,77.09,1Z"/><path class="cls-1" d="M634.11,664.26A63.74,63.74,0,0,1,511.62,689l2.49-.6,2.53-.61q9.76-2.35,19.48-4.76c15.51-3.81,31.15-7.65,46.87-11.16l3.06,48.94a58.75,58.75,0,0,0,43-56.53c0-.47,0-.94,0-1.4,1.7-.28,3.36-.53,5.06-.79C634.1,662.79,634.11,663.53,634.11,664.26Z"/><path class="cls-1" d="M704.3,695.41a219.12,219.12,0,0,1-32.6,56.32l-33.42-9.55q-5.26,5.72-11,11l9.55,33.43a219,219,0,0,1-56.33,32.59l-7.59-7.84-3.17-3.28-3.17-3.28-10.24-10.58q-7.4,2.31-15,4l-4.77,19.06-1.29,5.13L534,827.52l-1.1,4.38q-6.52,1-13.17,1.55c-4.25.39-8.55.64-12.87.76q-3.24.1-6.5.1t-6.5-.1c-4.32-.12-8.62-.37-12.87-.76q-6.64-.57-13.17-1.55l-1.1-4.38-1.28-5.13-1.29-5.13-4.77-19.06q-7.64-1.71-15-4l-10.24,10.58-3.17,3.28-3.17,3.28-7.59,7.84a219,219,0,0,1-56.33-32.59l9.55-33.43q-5.7-5.25-11-11L329,751.73a218.53,218.53,0,0,1-31.34-53.25C323.21,706,348.8,709,374.32,709.12a157.72,157.72,0,0,0,30.61,31c1.33,1,2.69,2,4.06,3s2.7,1.91,4.08,2.83l.29-4.7.29-4.68,1.85-29.64c24.46-2.57,48.82-7.19,73-12.59l4.75-1.07,4.79-1.09L494,696.12a82.38,82.38,0,0,0,10.64,18.39l12.87-3.68,1.06,1.15c1.32,1.42,2.71,2.81,4.13,4.12l1.15,1.06L520.13,730a82.76,82.76,0,0,0,18.39,10.64l9.31-9.62,1.49.46c1.83.57,3.73,1.08,5.65,1.51l1.53.34,3.25,13a84,84,0,0,0,10.4.67,82.76,82.76,0,0,0,8.9-.45c.65-.06,1.3-.14,2-.22l.29-1.15,1.41-5.66,1.55-6.17,1.53-.34,1-.24c1.57-.37,3.13-.8,4.64-1.27l1.49-.46,6.19,6.4,3.12,3.22A83.15,83.15,0,0,0,620.62,730l-2.94-10.28-.74-2.6,1.15-1.06c1.43-1.31,2.81-2.7,4.12-4.12l1.06-1.15,1.47.42,11.41,3.26a83.15,83.15,0,0,0,10.64-18.39l-7.55-7.31-2.07-2,.46-1.49c.58-1.83,1.08-3.73,1.51-5.65l.34-1.54,5.52-1.38,7.46-1.86a84.06,84.06,0,0,0,.68-10.63c0-1.56,0-3.12-.14-4.68.85-.1,1.69-.19,2.54-.27s1.68-.19,2.52-.26c8.33-.84,16.67-1.42,25-1.69q-1.6,7-3.74,13.87Z"/><g id="little_cogs" data-name="little cogs"><path class="cls-1" d="M491.14,636.75l.52.5v-.51Zm9.21,5.37v.43l.33-.08v0Zm24.56-53,.28-.13v0Zm99,25.55.18.19,1.81-.52Z"/></g><g id="ref"><path class="cls-1" d="M571.45,486.81c-26.1,1.5-52.36.22-77.85-1-10.12-.49-20.36-1-30.65-1.32-11.31,3.25-22.68,6.26-34.11,8.6-6.37,1.31-12.76,2.41-19.17,3.21v34.32q8.43-.63,16.88-.88,7.32-.23,14.65-.22c17.74,0,35.41.87,52.73,1.71,12,.59,24.23,1.18,36.49,1.48l3.05-.74c13.31-3.27,26.72-6.56,40.19-9.65l4.2-.95V486.4C575.72,486.56,573.59,486.7,571.45,486.81Zm-89.05,21a13.72,13.72,0,0,1-1.55,6.65,10.82,10.82,0,0,1-4.29,4.35,11.66,11.66,0,0,1-6.29,1.38q-6.15-.24-12.29-.4v-3.7l2.75-.59V498l-2.75-.76v-3.71l2.75.07,9.54.33a12.13,12.13,0,0,1,10.58,6.66,14.55,14.55,0,0,1,1.55,6.79Zm23.32,14c-7.09-.33-14.17-.69-21.25-1v-3.69l2.72-.45V499l-2.72-.7v-3.72c7,.33,14,.69,21,1v7.57l-4.78-.22c0-.91-.09-1.81-.14-2.71l-7-.34v5.39l8.38.4v4.85l-8.38-.41v6.26l7.33.35c0-.94.1-1.88.14-2.82l4.73.22Zm22.58-2.1a7.47,7.47,0,0,1-3.52,2.39,14.44,14.44,0,0,1-5.24.67,23.78,23.78,0,0,1-5.7-.84,15.9,15.9,0,0,1-5-2.52V512.6l4.88.21.54,3.52a4.68,4.68,0,0,0,2,1.17,11.09,11.09,0,0,0,3.19.57,5.79,5.79,0,0,0,2-.23,2.34,2.34,0,0,0,1.22-.83,2.21,2.21,0,0,0,.42-1.37,2.57,2.57,0,0,0-.39-1.4,4.13,4.13,0,0,0-1.27-1.21,14.8,14.8,0,0,0-2.38-1.21,38.22,38.22,0,0,1-5.53-2.42,9.17,9.17,0,0,1-3.22-2.79,6.78,6.78,0,0,1-1.05-3.85A5.86,5.86,0,0,1,510.6,499a7.84,7.84,0,0,1,3.43-2.43,13.18,13.18,0,0,1,5-.79,19.33,19.33,0,0,1,5.67.84,13.78,13.78,0,0,1,4.37,2.28v6.33l-4.69-.14c-.25-1.18-.49-2.36-.74-3.54a8.35,8.35,0,0,0-1.75-.62,11.48,11.48,0,0,0-2.41-.34,6.28,6.28,0,0,0-2,.21,2.86,2.86,0,0,0-1.35.82,2.05,2.05,0,0,0-.5,1.42,2.08,2.08,0,0,0,.42,1.27,4.53,4.53,0,0,0,1.46,1.15,28.83,28.83,0,0,0,2.92,1.39,19.4,19.4,0,0,1,6.78,3.51,6.84,6.84,0,0,1,2.32,5.42A6.12,6.12,0,0,1,528.3,519.71Z"/><path class="cls-1" d="M476,507.06v.44a11.8,11.8,0,0,1-.69,4.23,5.71,5.71,0,0,1-2,2.75,5.26,5.26,0,0,1-3.35.88l-2.88-.11V498.61l2.88.11a5.59,5.59,0,0,1,3.35,1.15,6.45,6.45,0,0,1,2,2.91A12.2,12.2,0,0,1,476,507.06Z"/></g><path d="M395.32,409.31a10.85,10.85,0,0,0-1.62-.94c.82.61,1.67,1.21,2.54,1.79l.08-.06A9.37,9.37,0,0,0,395.32,409.31Zm74.12-28.75-.53,1,3-.91ZM462,393.43l.12.33v-.34Z"/><path class="cls-1" d="M469.44,380.56l-.53,1,3-.91ZM462,393.43l.12.33v-.34Z"/><path class="cls-1" d="M574.88,238.79H552.09V187.06h19.29l-71-51.75-71,51.75h19.3v51.73H425.8v39.84l15.78,10.15L440.07,313l-5-16.9-1.4-.09a57.35,57.35,0,0,0-8.29,0l-1.4.09L418.75,314a47.76,47.76,0,0,0-7.49,2.51l-14.81-11.4-1.18.75a65.14,65.14,0,0,0-6.71,4.87l-1.08.89,6.3,17.7a47.36,47.36,0,0,0-4.6,6.27L370.45,335l-.52,1.29a63.41,63.41,0,0,0-2.57,7.88l-.35,1.36,15.31,10.48a44.61,44.61,0,0,0-.25,4.59c0,1.15.05,2.31.14,3.51l-3.47,2.38c1.11.06,2.22.1,3.34.13l3.45.06.87-.6-.11-1.17c-.15-1.51-.22-2.92-.22-4.31a44,44,0,0,1,.36-5.32l.14-1.2-15-10.27q.66-2.36,1.56-4.74l18.28.51.6-1a44.91,44.91,0,0,1,5.51-7.52l.8-.88-6.15-17.29q1.94-1.53,4.05-2.93l14.48,11.14,1.1-.5a43.54,43.54,0,0,1,8.94-3l1.16-.25,5.13-17.4c1.8-.08,3.19-.08,5,0l5.07,17.2,1.2.22c.49.09,1,.19,1.47.31a43.67,43.67,0,0,1,8,2.59l1.08.48,14-10.79q2.11,1.39,4,2.93l-5.84,16.41.85.89a43.64,43.64,0,0,1,6.28,8.36l.6,1,17.16-.48q.89,2.38,1.55,4.74l-4.36,3,6.28-1.87,2.33-.69c23-6.79,46.38-13,69.88-14.9l-2.53-40.6,15.78-10.15Zm-100.54,3.66h-17V186.11h17Zm43,0h-34V186.11h34Zm26,0h-17V186.11h17Z"/><path class="cls-1" d="M456.77,354.61q-1,.28-1.92.54l-1.94.54c-1.68.47-3.36.92-5,1.37l-1.94.51-1.94.51a14.12,14.12,0,1,0-27.59,6c-.66.12-1.31.23-2,.32l-2,.31a17.78,17.78,0,0,1-.46-4,18.11,18.11,0,0,1,26.11-16.26l.35-5.52a23.1,23.1,0,0,0-8.34-1.55,23.36,23.36,0,0,0-23.33,23.33,23,23,0,0,0,.49,4.73l-2,.23-2,.22a26.76,26.76,0,0,1-.5-5.18,27.33,27.33,0,0,1,54-6Z"/><g id="ref-2" data-name="ref"><path class="cls-1" d="M670.13,506.6V491.39c12.45,4.41,24.33,9.26,35.82,14.6A339.82,339.82,0,0,0,670.13,506.6Z"/><path class="cls-1" d="M759.52,564.57c11.57,23,23,46.65,34.13,70.52a252.83,252.83,0,0,0-54.21-14.74V514c0-.17,0-.35,0-.52s0-.33-.07-.5a.13.13,0,0,1,0-.06,5.56,5.56,0,0,0-.19-.7,5.75,5.75,0,0,0-.69-1.38,2,2,0,0,0-.17-.23,1.24,1.24,0,0,0-.18-.22l-.19-.21a1.7,1.7,0,0,0-.19-.19l-.21-.19a3.36,3.36,0,0,0-.29-.24,3.62,3.62,0,0,0-.32-.22l-.33-.2a2.28,2.28,0,0,0-.3-.17l0,0h0l-.05,0a400.26,400.26,0,0,0-43.91-21c38.16-.23,71.79,6.29,103.83,20-11.76,15.54-23.92,32.67-36.22,51A5.58,5.58,0,0,0,759.52,564.57Z"/><path class="cls-1" d="M491.66,636.74v.51l-.52-.5Z"/><path class="cls-1" d="M500.69,642.45v0l-.33.08v-.43Z"/><path class="cls-1" d="M525.19,588.92v0l-.28.13Z"/><path class="cls-1" d="M364.29,660.05h0c-1.42,0-2.84-.11-4.26-.19Q362.16,660,364.29,660.05Z"/><path class="cls-1" d="M393.75,635.89q-6.08.32-12.15.43,2.63-8.36,5.26-16.74c.21-.72.43-1.44.64-2.16h.23c.21.64.41,1.28.61,1.92Z"/><path class="cls-1" d="M625.89,614.31l-1.81.52-.18-.19Z"/><path class="cls-1" d="M670.13,517.78c-1.86.13-3.71.27-5.57.42s-3.72.33-5.58.51c-24.77,2.41-49.56,7-74.18,12.49l-3.47.78c-2.33.52-4.64,1-7,1.59q-5.32,1.23-10.63,2.49h-.09c-5.2,1.23-10.39,2.5-15.57,3.77l-12,2.93c-36.84,9-74.2,18.21-111.81,22.91-51.06,6.37-102.59,4.5-153.94-17.12V676.65a238.49,238.49,0,0,0,33.13,11.88,262.62,262.62,0,0,0,63.09,9.24,358.23,358.23,0,0,0,49.62-2.18c26.1-2.84,52.15-8,78-14l5-1.15,2.47-.58,6.54-1.55,2.46-.59,2.48-.6q10.18-2.46,20.33-5c16.15-4,32.44-8,48.82-11.6,15.06-3.34,30.21-6.38,45.4-8.81l2.52-.39c.83-.14,1.67-.26,2.5-.39q3.35-.51,6.69-1,3-.42,6-.78c2.37-.31,4.74-.58,7.11-.84l1.55-.17a347.66,347.66,0,0,1,63.12-1.38q5.57.4,11.14,1v-129A308.76,308.76,0,0,0,670.13,517.78ZM415.39,658c-6.91.74-13.81,1.32-20.72,1.7v-7.81l3.62-.9-1.68-5.92q-8.91.54-17.83.63c-.53,2-1.07,4-1.6,6,1.21.23,2.41.44,3.62.65v7.81q-8.25.13-16.51-.17h0c-1.42,0-2.84-.11-4.26-.19-3.54-.18-7.09-.42-10.64-.74-3.31-.29-6.63-.64-9.94-1v-7.81q3-.24,6-.54v-7.24l.3-26.06-.23-.07q-5.61,14.6-11.22,28.95Q332,651,329.81,656.7q-5.26-.86-10.52-1.92L316,645.31q-6.3-18-12.59-36.25l-.27,0q.45,12,.91,24v9.07q3.23,1.47,6.44,2.87v7.81a247.82,247.82,0,0,1-24.88-7.43v-7.81c1.91.27,3.81.52,5.72.74V600.92c-1.91-1-3.81-2.09-5.72-3.18v-7.85c1.91.68,3.81,1.34,5.72,2q10.23,3.38,20.46,5.79,6.71,19.85,13.41,39.33l.23,0q6.51-17.1,13-34.53c8.62,1.11,17.24,1.79,25.87,2.11v7.84q-2.88.51-5.76,1v37.37q2,.54,4,1l1.37-.15q8.26-23.24,16.54-46.9,7.23-.1,14.47-.52,8.29,23.09,16.58,45.81l3.88.17Zm47.89-12.31a40.8,40.8,0,0,1-8.46,5.59A39.92,39.92,0,0,1,443,655.06,27,27,0,0,1,428.84,654a19.43,19.43,0,0,1-9.56-7.73l-.2-.32c-2.36-3.77-3.54-8.57-3.54-14.36V629a32,32,0,0,1,3.26-14.51,28.71,28.71,0,0,1,2.74-4.45,29.55,29.55,0,0,1,6.55-6.36,33.73,33.73,0,0,1,14.35-5.62,40.46,40.46,0,0,1,11-.36,22.75,22.75,0,0,1,9.73,3.44v14.29c-3.24.63-6.47,1.24-9.71,1.83-.45-2.65-.89-5.3-1.34-7.95a14.84,14.84,0,0,0-2.72-1,13.42,13.42,0,0,0-3.05-.47,17.77,17.77,0,0,0-3.48.24,15.89,15.89,0,0,0-7.4,3.18,16.25,16.25,0,0,0-4.89,6.56,24,24,0,0,0-1.73,9.52v2.62a19.42,19.42,0,0,0,1.79,8.73A11.09,11.09,0,0,0,443.12,645a23.86,23.86,0,0,0,4.58-1.24,36.5,36.5,0,0,0,4.49-2.07c.45-2.7.89-5.39,1.34-8.09q4.88-.89,9.75-1.84ZM525.19,589l-.28.13-5.48,2.49V629l1,0,3.28-.1,1.51-.05v7.81l-7.45,1.82-3.21.77-3.06.74-7.91,1.88-2.88.68-.33.08v-7.81l5.75-2.58v-13.1l-6,1.4-3.46.81-3.36.77c-2.47.57-4.94,1.12-7.41,1.67v13.11l5.23-.07h.52v7.81q-12.44,2.84-24.88,5.35v-7.81l5.75-2.39V602.32c-1.91,0-3.83,0-5.75,0v-7.85q12.44-2.49,24.88-5.35v7.85l-5.75,2.51v14q7.72-1.71,15.44-3.53l4.07-1,.68-.16v-14l-5.75.14v-7.85l5.75-1.36q6.66-1.59,13.33-3.21l5.76-1.4Zm27.89-6.83-5.75,2.62v37.37l5.75-.18v7.81q-12.42,3-24.84,6.08V628l5.76-2.63V588l-2,.07c-1.24,0-2.47.07-3.71.12v-7.85q12.42-3,24.84-6.08Zm62.41-13.64-5.76,2.29v46.41l-.2,0c-1.1.21-2.21.42-3.31.65-3.22.62-6.45,1.28-9.67,2q-4.39-5.82-8.78-11.59l-2.56-3.36-2.39-3.13c-1.52-2-3.05-4-4.57-6s-2.91-3.8-4.37-5.69l-.23,0v25.72c1.94-.13,3.89-.25,5.83-.36l1.49-.09v7.81l-1,.23c-8,1.79-15.92,3.67-23.88,5.59v-7.81l5.71-2.59V581.25l-4.47.12-1.24,0v-7.84l5.71-1.37q6.81-1.63,13.61-3.19l1.28,1.75,4.64,6.35,5.55,7.63,4.84,6.67,1.51,2.09,1.51,2.1q1.47,2,2.92,4l.22,0V573.14l-7.27.32v-7.85c6.37-1.37,12.75-2.68,19.12-3.89l5.76-1.08Zm46.94,41.12-3.45.33c-6,.56-12,1.27-18,2.09l-2.88.4q-6.11.87-12.23,1.88l-1.81.52-.18-.19-3,.52-3.39.59v-7.81l.46-.18,3-1.14,2.33-.9V568.34l-5.76-.22v-7.84c13.82-2.48,27.65-4.5,41.47-5.82.95-.1,1.89-.19,2.84-.27v16c-1,.08-1.89.17-2.84.27-2.42.22-4.84.48-7.25.75q-.16-2.85-.31-5.68-7.39.84-14.78,1.91v11.39q8.85-1.27,17.72-2.24v10.25c-5.91.63-11.82,1.39-17.72,2.24v13.22q7.75-1.12,15.51-2l.3-6c2.18-.24,4.36-.47,6.53-.67l3.45-.32Zm47.75-7.27a16.13,16.13,0,0,1-7.43,5A34.11,34.11,0,0,1,691.66,609a59.19,59.19,0,0,1-12-1,31.62,31.62,0,0,1-9.49-3.71c-.33-.18-.66-.38-1-.58v-14.4l1-.06c3.11-.22,6.23-.39,9.34-.53l1.14,7.35a9.2,9.2,0,0,0,4.31,2.16,24.37,24.37,0,0,0,6.74.82,13,13,0,0,0,4.27-.63,5.36,5.36,0,0,0,2.59-1.82,4.85,4.85,0,0,0,.87-2.92,5.42,5.42,0,0,0-.82-2.95,8.24,8.24,0,0,0-2.68-2.48,28.52,28.52,0,0,0-5-2.38,93.12,93.12,0,0,1-11.7-4.33,17.29,17.29,0,0,1-6.8-5.25,13.2,13.2,0,0,1-2.23-7.89,13.67,13.67,0,0,1,2.63-8.23,18.58,18.58,0,0,1,7.24-5.8A26.35,26.35,0,0,1,690.55,552a35.84,35.84,0,0,1,12,1.45,27.42,27.42,0,0,1,9.22,4.95v13.37q-5-.28-9.91-.41l-1.56-7.47a16.34,16.34,0,0,0-3.7-1.23,22,22,0,0,0-5.1-.54,12.56,12.56,0,0,0-4.14.67,6.37,6.37,0,0,0-2.85,1.9,4.61,4.61,0,0,0-1,3.07,4.2,4.2,0,0,0,.87,2.63,9.32,9.32,0,0,0,3.09,2.25q2.21,1.11,6.17,2.62c6.3,1.85,11.08,4.34,14.35,7.26a14.91,14.91,0,0,1,4.89,11.6A12.67,12.67,0,0,1,710.18,602.34Z"/></g><path d="M360,659.87c1.42.08,2.84.14,4.26.19h0Q362.16,660,360,659.87Z"/><path d="M524.91,589.09l.28-.13v0Zm-24.56,53v.43l.33-.08v0Zm-9.21-5.37.52.5v-.51Z"/><g id="ref-3" data-name="ref"><path class="cls-1" d="M395.32,409.31a10.85,10.85,0,0,0-1.62-.94c.82.61,1.67,1.21,2.54,1.79l.08-.06A9.37,9.37,0,0,0,395.32,409.31Z"/><path class="cls-1" d="M462.11,393.42v.34l-.12-.33Z"/><path class="cls-1" d="M472,380.63l-3,.91.53-1Z"/><path class="cls-1" d="M516.33,402.33c-4.42,1.14-8.85,2.35-13.27,3.6q2.87-9.87,5.74-19.74c.24-.84.47-1.68.71-2.52l.25-.07.66,1.94Q513.38,393.92,516.33,402.33Z"/><path class="cls-1" d="M608.41,396.36c8.5-16.19,16.88-31.17,24.94-44.61-23.7-11.79-47.28-14.6-71.11-12.63-26.16,2.15-52.62,10.08-79.84,18.23l-4.29,1.28-2,.59-2,.59c-5.66,1.68-11.33,3.34-17,4.93l-2.12.58-2.19.6-5.93,1.57-2.5.63-2.77.69c-1.7.41-3.41.82-5.12,1.21q-6.75,1.56-13.51,2.8c-.94.18-1.87.35-2.81.51s-1.71.29-2.56.42c-2,.34-4.09.64-6.14.92l-2.27.29c-.73.1-1.46.19-2.2.27a170.16,170.16,0,0,1-34.81.62c-1-.09-1.91-.18-2.87-.29-.71-.08-1.42-.16-2.14-.26a132.73,132.73,0,0,1-40.59-11.81V473.86c25.37,13.16,50.6,15.91,76.12,13.38,1.15-.11,2.31-.23,3.47-.37s2.31-.28,3.47-.44q6-.81,12-1.95c2.59-.48,5.17-1,7.76-1.57q4.95-1.07,9.93-2.3h.27c4.27-1.05,8.28-2.18,12.58-3.37,9-2.48,18.13-5.21,27.32-8,29.42-8.82,59.39-17.8,89.6-19,20.69-.82,41.5,2,62.31,11.08-7.54-20.59-15.35-41-23.28-60.9A4.94,4.94,0,0,1,608.41,396.36ZM411.29,468.25c-6.21-3.17-12.42-6.6-18.64-10.38-.88.12-1.76.22-2.62.31s-1.69.14-2.49.15a24.85,24.85,0,0,1-11.61-2.65,28.36,28.36,0,0,1-9.14-7.37,34.82,34.82,0,0,1-6-10.68,37.79,37.79,0,0,1-2.1-12.61v-.95a31.08,31.08,0,0,1,2.1-11.73,24.65,24.65,0,0,1,6-8.82,26.4,26.4,0,0,1,9.12-5.55,33.62,33.62,0,0,1,11.54-2,37.43,37.43,0,0,1,4.41.22c.68.07,1.36.17,2,.29s1.33.25,2,.41a28.57,28.57,0,0,1,3,.91,27,27,0,0,1,7.79,4.29c.51.39,1,.81,1.47,1.25l.08.08c.5.46,1,.94,1.42,1.44a25.41,25.41,0,0,1,4.68,7.39,30.21,30.21,0,0,1,2.21,11.79V425a33.29,33.29,0,0,1-3.42,14.74,39.6,39.6,0,0,1-8.36,11.69q6.67,3.18,13.36,5.93Q414.7,462.87,411.29,468.25Zm65.43-49.38a25.82,25.82,0,0,1-3.25,12.76,31.1,31.1,0,0,1-9,10.1A39.94,39.94,0,0,1,451,448.07q-7.82,2.1-13.62.94a15.32,15.32,0,0,1-5.69-2.28,13.28,13.28,0,0,1-3.28-3.11q-3.17-4.22-3.16-11.26V402.61q-3.12-.06-6.24-.18v-8.57c5.39-.93,10.79-2,16.18-3.29,3.65-.83,7.3-1.73,10.95-2.67v8.57c-2.1,1-4.19,2-6.29,2.91v29.75a10.85,10.85,0,0,0,1.29,5.74,5.65,5.65,0,0,0,3.77,2.61,13,13,0,0,0,6-.42,17.9,17.9,0,0,0,6.14-2.85,11.88,11.88,0,0,0,3.74-4.62,15.17,15.17,0,0,0,1.27-6.42V393.76l-.12-.33-6.12.43v-8.57c4.34-1.21,8.69-2.47,13-3.75l.53-1,2.52.07c3.68-1.09,7.36-2.2,11-3.3v8.57l-6.28,3.22ZM540,423.12c-7.54,1.39-15.08,3.11-22.63,5v-8.53l3.95-1.74-1.83-6.12c-6.49,1.63-13,3.41-19.47,5.28-.58,2.36-1.17,4.72-1.75,7.08l3.95-.39v8.53c-7.55,2.15-15.11,4.43-22.67,6.69v-8.53l4.24-1.89q9-28.43,18.06-56.74,7.9-2.26,15.81-4.3,9,23.42,18.1,47.29c1.42-.08,2.83-.14,4.24-.19Zm29.73-55.44c-1.86.46-3.71,1-5.58,1.48l-.7.2v40.82c1.1.15,2.2.31,3.29.49s2,.32,3,.49v8.53l-2.42.11a206,206,0,0,0-24.71,2.86v-8.53c2.1-.81,4.19-1.59,6.29-2.34V371c-2.1-.14-4.19-.25-6.29-.33v-8.57c7-1.21,14-2.12,21-2.62,2.06-.16,4.12-.27,6.18-.35Z"/></g><path class="cls-1" d="M402,425.84v1a30.33,30.33,0,0,1-1.67,10.46,16.35,16.35,0,0,1-4.89,7.21,12.36,12.36,0,0,1-7.92,2.71,12,12,0,0,1-8-2.57,15.16,15.16,0,0,1-4.7-7.14,32.53,32.53,0,0,1-1.54-10.46v-1a31.18,31.18,0,0,1,1.47-10.16,13.11,13.11,0,0,1,4.6-6.51,13.48,13.48,0,0,1,8-2.27H388a13.74,13.74,0,0,1,2.06.17,12.44,12.44,0,0,1,3.66,1.08c.82.61,1.67,1.21,2.54,1.79l.08-.06a11.29,11.29,0,0,1,1.42,1.43,12.82,12.82,0,0,1,1.18,1.61,15.66,15.66,0,0,1,1.37,2.68A26.69,26.69,0,0,1,402,425.84Z"/></g></svg>