<svg id="Calque_1" data-name="Calque 1" xmlns="http://www.w3.org/2000/svg" viewBox="0 0 1000 1000"><defs><style>.cls-1{fill:#fff;}</style></defs><path class="cls-1" d="M712.53,531.92a217,217,0,0,0,0-63.84l-33.06-8.27q-1.68-7.5-3.93-14.75L700,421.35a214.87,214.87,0,0,0-32-55.25l-32.78,9.37q-5.16-5.6-10.76-10.76l9.37-32.78a214.58,214.58,0,0,0-55.25-32l-23.71,24.5q-7.25-2.26-14.75-3.93l-8.27-33.06a217,217,0,0,0-63.84,0l-8.27,33.06q-7.5,1.67-14.75,3.93L421.35,300a214.58,214.58,0,0,0-55.25,32l9.37,32.78q-5.6,5.16-10.76,10.76l-32.78-9.37a214.87,214.87,0,0,0-32,55.25l24.5,23.71q-2.26,7.24-3.93,14.75l-33.06,8.27a217,217,0,0,0,0,63.84l33.06,8.27q1.67,7.5,3.93,14.75L300,578.65a214.87,214.87,0,0,0,32,55.25l32.78-9.37q5.16,5.6,10.76,10.76l-9.37,32.78a214.87,214.87,0,0,0,55.25,32l14.42-14.9,6.43-6.65,2.86-3c1.09.34,2.18.67,3.28,1,3.77,1.11,7.6,2.08,11.47,3l8.27,33.06a217,217,0,0,0,63.84,0l8.27-33.06c3.87-.87,7.7-1.84,11.47-3,1.1-.31,2.19-.64,3.28-1l2.86,3,6.43,6.65L578.65,700a214.87,214.87,0,0,0,55.25-32l-9.37-32.78q5.6-5.16,10.76-10.76l32.78,9.37a214.87,214.87,0,0,0,32-55.25l-24.5-23.71q2.26-7.25,3.93-14.75ZM561.5,641.4c-1.93.84-3.89,1.65-5.86,2.42s-3.9,1.46-5.88,2.13a154.9,154.9,0,0,1-99.52,0c-2-.67-3.94-1.39-5.88-2.13s-3.93-1.58-5.86-2.42a154.21,154.21,0,0,1,22.33-290.54l32.1-23.38a12,12,0,0,1,14.14,0l32.1,23.38A154.21,154.21,0,0,1,561.5,641.4Z"/><path class="cls-1" d="M536.43,432.34l9.79-6.3v-24.7H532.08V369.26h12L534,362l-11.54-8.41-9.88-7.19L500,337.18l-12.59,9.17-9.88,7.19L466,362l-10,7.31h12v32.08H453.78V426l9.79,6.3L451,633.47a142.38,142.38,0,0,0,98,0Zm-52.55-28.73H473.34V368.68h10.54Zm26.66,0H489.46V368.68h21.08Zm16.12,0H516.12V368.68h10.54Z"/></svg>