<svg xmlns="http://www.w3.org/2000/svg" viewBox="0 0 777.02 154.51"><defs><style>.a{fill:#fff;}</style></defs><path class="a" d="M682.46.63q13.63,6.84,27,14.06Q696,13.09,682.46,12Z"/><path class="a" d="M749.76,59.07c8.76,16.75,17.54,33.77,26.17,50.7-13.67-3.18-27.51-5.88-41.65-8.13V23.23A4.19,4.19,0,0,0,732.51,18C721.81,11.82,710.81,5.81,699.65,0A604.85,604.85,0,0,1,777,13.1c-8.9,13.51-18,27.53-27.08,41.77A4.18,4.18,0,0,0,749.76,59.07Z"/><path class="a" d="M78.09,30.32C67,33.84,56.07,37,45.44,39.84a4.19,4.19,0,0,0-3,5.13,3.49,3.49,0,0,0,.2.57v77.21C28.17,120.42,14,117.6,0,114.27c8.86-13.08,17.91-26.69,27-40.53a4.18,4.18,0,0,0,.23-4.21C18.38,52.31,9.55,34.87.91,17.56A616.32,616.32,0,0,0,78.09,30.32Z"/><path class="a" d="M94.48,46.55q-15.3-1.21-30.56-3.15c10-2.92,20.24-6.13,30.56-9.6Z"/><path class="a" d="M184.09,105.89c-3.11.07-6.23.13-9.34.17q2-6.42,4.1-12.84c.17-.55.34-1.1.5-1.65h.18l.46,1.48Q182,99.47,184.09,105.89Z"/><path class="a" d="M268,97.65v.7a20.31,20.31,0,0,1-1.16,7,11.35,11.35,0,0,1-3.35,4.91,9.52,9.52,0,0,1-5.45,2.1l-4.69.38.12-27,4.69-.38a8.32,8.32,0,0,1,5.44,1.18,8.87,8.87,0,0,1,3.31,4.31A18.66,18.66,0,0,1,268,97.65Z"/><path class="a" d="M454.82,79.48l-9.35,1.07,4.11-13.25c.16-.56.33-1.13.5-1.7l.18,0c.15.48.31,1,.46,1.45Q452.78,73.26,454.82,79.48Z"/><path class="a" d="M682.46,20.06c-1.4-.12-2.79-.23-4.19-.32l-4.2-.31C578.71,12.93,482.51,25.27,389,37.27c-93.76,12-190.19,24.4-286.11,17.92-1.4-.08-2.8-.18-4.2-.29s-2.8-.2-4.19-.32q-21.95-1.72-43.82-4.89v97.45C163,163.74,277.32,149.07,388,134.88c110.8-14.22,225.32-28.91,338.32-12.42V25Q704.42,21.77,682.46,20.06ZM110,131.81q-3.58-2.55-7.17-5.15l-4.19-3L97,122.37H95.11l-.63,0c-.38,0-.76,0-1.13-.06a20.94,20.94,0,0,1-8.17-2.38,21.8,21.8,0,0,1-6.41-5.2,23.64,23.64,0,0,1-4.15-7.31,25.34,25.34,0,0,1-1.44-8.77V98A22.67,22.67,0,0,1,74.7,89.6a18.05,18.05,0,0,1,4.22-6.4,16.87,16.87,0,0,1,6.44-3.9,19.66,19.66,0,0,1,8.13-.87l1,.1a22.21,22.21,0,0,1,4.19,1,20,20,0,0,1,2.87,1.21c.45.23.9.48,1.33.74A22.5,22.5,0,0,1,108,85.71a22.93,22.93,0,0,1,4.32,7.14,23.71,23.71,0,0,1,1.51,8.63v.68a20.44,20.44,0,0,1-2.45,9.86,21.94,21.94,0,0,1-5.92,7.09q4.69,3.08,9.38,6.07C113.27,127.4,111.65,129.61,110,131.81Zm46.25-43-.09,21a14.71,14.71,0,0,1-2.32,8.29,14.17,14.17,0,0,1-6.37,5.16,22.26,22.26,0,0,1-9.46,1.6,23.67,23.67,0,0,1-9.58-2.1,14.46,14.46,0,0,1-6.29-5.47,15.42,15.42,0,0,1-2.19-8.48l.09-21-4.39-1.17,0-6q9.56.54,19.1.83,0,3,0,6l-4.43.79q-.06,10.47-.1,20.95a9.06,9.06,0,0,0,.89,4.29,5.93,5.93,0,0,0,2.64,2.6,11.48,11.48,0,0,0,8.55.23,5.45,5.45,0,0,0,2.65-2.45,9,9,0,0,0,.92-4.25L146,88.69l-4.39-1,0-6q9.56.21,19.1.23l0,6Zm44.36,34.93q-8,.32-15.94.5l0-6,2.78-.6-1.26-4.6q-6.85.18-13.71.25l-1.26,4.65,2.78.49q0,3,0,6-8,.11-16,.07l0-6,3-.43Q167.53,100,174,81.78q5.57-.07,11.13-.21,6.28,18,12.58,35.84l3,.33Zm21.12-37.63-4.43,1.18q-.08,14.37-.13,28.75c1.47.23,2.94.47,4.42.69l0,6q-9.56.54-19.1.93l0-6,4.42-1.12q.08-14.37.14-28.75L202.67,87q0-3,0-6,9.56-.39,19.1-.94Q221.79,83.1,221.77,86.11Zm56.56,11.3a24.32,24.32,0,0,1-2.57,11.15,21.46,21.46,0,0,1-7,8,20.84,20.84,0,0,1-10.24,3.54q-10,.84-20,1.53l0-6,4.48-1.4q.07-14.22.13-28.43L238.71,85c0-2,0-4,0-6l4.49-.32q7.74-.57,15.49-1.21a18.59,18.59,0,0,1,10.22,1.8,16.37,16.37,0,0,1,6.94,6.78,21.62,21.62,0,0,1,2.47,10.68C278.33,97,278.33,97.18,278.33,97.41Zm37.81,17.06q-17.26,1.92-34.54,3.6l0-6,4.43-1.37q.06-14.37.13-28.75l-4.42-.51,0-6q17-1.64,34.07-3.54l-.06,12.31-7.76.85-.21-4.37q-5.68.61-11.37,1.2c0,2.92,0,5.84,0,8.76q6.81-.7,13.62-1.44L310,97q-6.81.75-13.63,1.45c0,3.39,0,6.78,0,10.17q6-.61,11.92-1.26c.09-1.55.17-3.09.26-4.63l7.67-.84Zm36.73-9.09a15.11,15.11,0,0,1-5.73,4.73,25.74,25.74,0,0,1-8.53,2.4,38,38,0,0,1-9.26.09,21.73,21.73,0,0,1-8-2.84q0-5.54.05-11.08l7.94-.9q.42,2.79.85,5.58a6.21,6.21,0,0,0,3.3,1.39,17.08,17.08,0,0,0,5.18.11,10.16,10.16,0,0,0,3.29-.87,5,5,0,0,0,2-1.66,4.15,4.15,0,0,0,.68-2.34,3.77,3.77,0,0,0-.62-2.18,5.31,5.31,0,0,0-2.06-1.64,20.34,20.34,0,0,0-3.86-1.38,51.53,51.53,0,0,1-9-2.53,11.69,11.69,0,0,1-5.21-3.71,9.71,9.71,0,0,1-1.69-6,11,11,0,0,1,2.05-6.43,16.15,16.15,0,0,1,5.59-4.81A23.46,23.46,0,0,1,338,68.76a30,30,0,0,1,9.22-.05,18.73,18.73,0,0,1,7.08,2.64c0,3.43,0,6.86-.05,10.29l-7.62.92L345.42,77a11.14,11.14,0,0,0-2.84-.57,17.82,17.82,0,0,0-3.92,0,10.58,10.58,0,0,0-3.18.84A5.68,5.68,0,0,0,333.27,79a3.83,3.83,0,0,0-.81,2.43,2.89,2.89,0,0,0,.66,2,6.07,6.07,0,0,0,2.36,1.52,41.49,41.49,0,0,0,4.74,1.5q7.26,1.29,11,4T355,98.69A11.33,11.33,0,0,1,352.87,105.38ZM471.38,96q-8,.86-15.94,1.76l0-6,2.78-.84c-.42-1.5-.84-3-1.27-4.49L443.27,88c-.41,1.59-.83,3.19-1.25,4.78l2.78.2c0,2,0,4,0,6q-8,.93-16,1.89T413,102.8l0-6,4.6-1.5,0-5.57q.15-10.05.32-20.11h-.17q-6.12,17.06-12.22,34.11l-8.09,1q-6-15.37-12.1-30.73l-.2,0q.3,9.1.62,18.21c0,2.32,0,4.65,0,7l5,.33,0,6-19.13,2.36,0-6,4.4-1.48q.06-14.37.13-28.76l-4.39-.39,0-6,4.39-.54,15.74-1.95Q397,76.16,402.08,89.58l.18,0q5.07-14.67,10.14-29.34,9.94-1.23,19.9-2.41l0,6-4.43,1.47q-.06,14.37-.13,28.75l3.09.29,1-.28q6.44-18.87,12.88-37.73l11.13-1.27L468.42,89.9l3,.11C471.39,92,471.39,94,471.38,96Zm36.91-30.68c-2.49.22-5,.44-7.48.68l-1-6.21a12,12,0,0,0-2.09-1,9.75,9.75,0,0,0-2.34-.54,12.59,12.59,0,0,0-2.68,0A11.31,11.31,0,0,0,487,60.41a11.79,11.79,0,0,0-3.79,4.88,18.22,18.22,0,0,0-1.36,7.28c0,.67,0,1.34,0,2a15.44,15.44,0,0,0,1.34,6.76A9.51,9.51,0,0,0,487,85.61a9.42,9.42,0,0,0,5.72,1.1,18.07,18.07,0,0,0,3.51-.71,25.67,25.67,0,0,0,3.46-1.31c.35-2,.71-4.09,1.06-6.13l7.5-.69q0,5.38-.05,10.76a29.17,29.17,0,0,1-6.52,3.66,31.46,31.46,0,0,1-9.12,2.17,22.4,22.4,0,0,1-10.86-1.37,15.55,15.55,0,0,1-7.46-6.36,20.59,20.59,0,0,1-2.68-11.07c0-.65,0-1.31,0-2a24.63,24.63,0,0,1,2.56-11.16,21.39,21.39,0,0,1,7.18-8.16,23.34,23.34,0,0,1,11-3.79,28.66,28.66,0,0,1,8.48.38,18.67,18.67,0,0,1,7.47,3.37C508.32,58,508.3,61.67,508.29,65.34ZM556,52.25l-4.43,1.19q-.06,14.39-.13,28.75l4.42.68,0,6q-9.54.54-19.1,1.22l0-6,4.43-1.24c0-3.37,0-6.73,0-10.09q-7.76.52-15.52,1.14,0,5-.05,10.08l4.42.6,0,6q-9.57.73-19.13,1.57l0-6,4.43-1.32q.06-14.38.13-28.75l-4.42-.56,0-6q9.55-.82,19.13-1.56l0,6-4.43,1.28c0,3.59,0,7.19,0,10.78q7.77-.6,15.53-1.13c0-3.59,0-7.19,0-10.78l-4.42-.64,0-6,4.42-.31q5.13-.34,10.25-.65l4.43-.26Zm21.47-1L573,52.35q-.07,14.38-.13,28.75l4.42.76,0,6q-9.56.36-19.1.88c0-2,0-4,0-6l4.43-1.17q.06-14.37.13-28.74l-4.42-.71,0-6q9.55-.51,19.1-.88Q577.46,48.23,577.45,51.24Zm48-.67-4.43.9q-.09,17.84-.17,35.68-5.05,0-10.13,0Q602,73.82,593.38,60.66h-.18l-.09,19.77,5.62.83q0,3,0,6-9.57.17-19.14.51l0-6,4.4-1.09q.06-14.37.13-28.74l-4.39-.79,0-6,4.39-.15q5.24-.16,10.46-.27,8.49,13.47,17,27.09h.17q0-10.17.1-20.34l-5.6-.9,0-6q7.35-.08,14.71,0l4.42,0Q625.42,47.55,625.42,50.57Zm35.93,37.82q-17.26-1-34.54-1.18l0-6c1.48-.3,2.95-.59,4.43-.87q.06-14.37.13-28.74l-4.42-1,0-6q17,.22,34.07,1.16L661,58c-2.58-.14-5.17-.28-7.76-.39l-.21-4.41q-5.68-.26-11.37-.43c0,2.92,0,5.84,0,8.76q6.81.21,13.62.54l0,7.87q-6.81-.31-13.63-.53c0,3.39,0,6.78,0,10.17q6,.18,11.92.45c.09-1.53.17-3.06.26-4.59l7.67.39Zm36.73-1.84A11.28,11.28,0,0,1,692.35,90a23.92,23.92,0,0,1-8.53.6c-.46,0-.91-.08-1.36-.14-1.47-.16-2.87-.37-4.2-.65a34.42,34.42,0,0,1-3.7-1l-.49-.17a27.42,27.42,0,0,1-7.55-4.13q0-5.53.05-11.07c2.5.16,5,.33,7.5.51l.44,0c.29,1.92.57,3.84.86,5.75a7.35,7.35,0,0,0,2.89,1.87l.41.16a18.8,18.8,0,0,0,3.79,1c.46.07.92.13,1.39.17a9.41,9.41,0,0,0,3.29-.2,3.62,3.62,0,0,0,2-1.23,3.47,3.47,0,0,0,.69-2.19A4.55,4.55,0,0,0,689.2,77a7.32,7.32,0,0,0-2.06-2.08,25,25,0,0,0-3.86-2.17l-.82-.34q-2.28-.95-4.2-1.86-2.22-1.06-4-2.09l-.23-.14a15.12,15.12,0,0,1-5-4.53,11.1,11.1,0,0,1-1.69-6.29,9.45,9.45,0,0,1,2.05-6.06,11.8,11.8,0,0,1,4.61-3.39c.32-.14.64-.27,1-.39a16.93,16.93,0,0,1,3.21-.79,21.23,21.23,0,0,1,4.2-.21l.71,0a31,31,0,0,1,9.22,1.9,23.39,23.39,0,0,1,7.07,4.24c0,3.42,0,6.85,0,10.27-2.54-.27-5.08-.54-7.62-.79l-1.17-5.82a13.89,13.89,0,0,0-2.84-1.18,18.12,18.12,0,0,0-3.93-.76,9.54,9.54,0,0,0-1.4,0,8.14,8.14,0,0,0-1.78.24,4.28,4.28,0,0,0-2.2,1.23,2.8,2.8,0,0,0-.22.25v0a3.42,3.42,0,0,0-.6,2,3.55,3.55,0,0,0,.6,2h0l.07.09a7.88,7.88,0,0,0,2.36,2q.75.46,1.77,1c.85.45,1.84,1,3,1.48a32.82,32.82,0,0,1,11,6.42,12,12,0,0,1,3.73,9.11A9.35,9.35,0,0,1,698.08,86.55Z"/><path class="a" d="M103.65,100.76c0,.24,0,.49,0,.73a21.15,21.15,0,0,1-.77,5.9,12,12,0,0,1-.43,1.28A9.6,9.6,0,0,1,99,113.24l-.3.19a7.91,7.91,0,0,1-4.2,1.12,10.11,10.11,0,0,1-1.09,0,9.53,9.53,0,0,1-5.59-2.22,11.34,11.34,0,0,1-3.29-5.15,23.26,23.26,0,0,1-1.05-7.39V99a21.44,21.44,0,0,1,1.08-7.13,7.9,7.9,0,0,1,8.92-5.65c.35,0,.69.08,1,.14a9.36,9.36,0,0,1,4.2,1.81,3.24,3.24,0,0,1,.31.24,12.13,12.13,0,0,1,3.48,5.08c.15.39.28.79.4,1.21A21.19,21.19,0,0,1,103.65,100.76Z"/></svg>