<svg width="11" height="13" viewBox="0 0 11 13" fill="none" xmlns="http://www.w3.org/2000/svg">
<path d="M1.34618 11.5769H9.65387C9.7692 11.5767 9.88044 11.6197 9.96567 11.6974C10.0509 11.7751 10.1039 11.8819 10.1144 11.9968C10.1248 12.1116 10.0918 12.2262 10.022 12.318C9.95212 12.4098 9.85044 12.4721 9.73695 12.4926L9.65387 12.5H1.34618C1.23084 12.5002 1.11961 12.4572 1.03438 12.3795C0.949148 12.3018 0.896099 12.195 0.885678 12.0802C0.875257 11.9653 0.908219 11.8507 0.978073 11.7589C1.04793 11.6671 1.14961 11.6049 1.2631 11.5843L1.34618 11.5769H9.65387H1.34618ZM5.41695 0.507385L5.50002 0.5C5.60805 0.499964 5.71266 0.53782 5.79565 0.606975C5.87863 0.67613 5.93473 0.772202 5.95418 0.878462L5.96156 0.961538V9.07723L8.43725 6.60246C8.51362 6.526 8.6144 6.47877 8.72202 6.46899C8.82963 6.4592 8.93727 6.48749 9.02618 6.54892L9.09079 6.60246C9.16711 6.67894 9.21417 6.77978 9.22379 6.88739C9.2334 6.99501 9.20496 7.10258 9.14341 7.19138L9.08987 7.25508L5.82679 10.5191C5.75031 10.5954 5.64948 10.6425 5.54186 10.6521C5.43425 10.6617 5.32667 10.6332 5.23787 10.5717L5.17325 10.5191L1.91018 7.25508C1.82841 7.17367 1.7801 7.06459 1.77476 6.94933C1.76943 6.83407 1.80746 6.721 1.88136 6.63238C1.95526 6.54377 2.05967 6.48606 2.17401 6.47061C2.28835 6.45516 2.40434 6.4831 2.4991 6.54892L2.56279 6.60246L5.03849 9.07723V0.961538C5.03845 0.853515 5.07631 0.748901 5.14546 0.665915C5.21462 0.582929 5.31069 0.526829 5.41695 0.507385L5.50002 0.5L5.41695 0.507385Z" fill="white"/>
</svg>
