<svg xmlns="http://www.w3.org/2000/svg" viewBox="0 0 429.78 429.78"><defs><style>.a{fill:#fff;}</style></defs><path class="a" d="M427.42,246.81a217,217,0,0,0,0-63.84l-33.06-8.27q-1.68-7.5-3.93-14.75l24.5-23.71A214.87,214.87,0,0,0,383,81l-32.78,9.37Q345,84.76,339.42,79.6l9.37-32.78a214.58,214.58,0,0,0-55.25-32l-23.71,24.5q-7.24-2.26-14.75-3.93L246.81,2.36a217,217,0,0,0-63.84,0L174.7,35.42q-7.5,1.66-14.75,3.93l-23.71-24.5A214.58,214.58,0,0,0,81,46.82L90.36,79.6q-5.6,5.16-10.76,10.76L46.82,81a214.87,214.87,0,0,0-32,55.25L39.35,160q-2.26,7.25-3.93,14.75L2.36,183a217,217,0,0,0,0,63.84l33.06,8.27q1.66,7.5,3.93,14.75l-24.5,23.71a214.87,214.87,0,0,0,32,55.25l32.78-9.37q5.16,5.59,10.76,10.76L81,383a214.87,214.87,0,0,0,55.25,32L150.66,400l6.43-6.65,2.86-2.95c1.09.34,2.18.67,3.28,1,3.77,1.11,7.6,2.08,11.47,2.95L183,427.42a217,217,0,0,0,63.84,0l8.27-33.06c3.87-.87,7.7-1.84,11.47-2.95,1.1-.31,2.19-.64,3.28-1l2.86,2.95,6.43,6.65,14.42,14.9a214.87,214.87,0,0,0,55.25-32l-9.37-32.78Q345,345,350.18,339.42L383,348.79a214.87,214.87,0,0,0,32-55.25l-24.5-23.71q2.26-7.24,3.93-14.75Zm-151,109.48c-1.93.84-3.89,1.65-5.86,2.42s-3.9,1.46-5.88,2.13a154.9,154.9,0,0,1-99.52,0c-2-.67-3.94-1.39-5.88-2.13s-3.93-1.58-5.86-2.42A154.21,154.21,0,0,1,175.72,65.75l32.1-23.38a12,12,0,0,1,14.14,0l32.1,23.38a154.21,154.21,0,0,1,22.33,290.54Z"/><path class="a" d="M251.32,147.23l9.79-6.3v-24.7H247V84.15h12l-10-7.31-11.54-8.41-9.88-7.19-12.59-9.17L202.3,61.24l-9.88,7.19-11.54,8.41-10,7.31h12v32.08H168.67v24.7l9.79,6.3L165.91,348.36a142.38,142.38,0,0,0,98,0ZM198.77,118.5H188.23V83.57h10.54Zm26.66,0H204.35V83.57h21.08Zm16.12,0H231V83.57h10.54Z"/></svg>