<?xml version="1.0" standalone="no"?>
<!DOCTYPE svg PUBLIC "-//W3C//DTD SVG 20010904//EN"
 "http://www.w3.org/TR/2001/REC-SVG-20010904/DTD/svg10.dtd">
<svg version="1.0" xmlns="http://www.w3.org/2000/svg"
 width="700.000000pt" height="700.000000pt" viewBox="0 0 700.000000 700.000000"
 preserveAspectRatio="xMidYMid meet">
<metadata>
Created by potrace 1.14, written by Peter Selinger 2001-2017
</metadata>
<g transform="translate(0.000000,700.000000) scale(0.100000,-0.100000)"
fill="#000000" stroke="none">
<path d="M3278 6995 c-1 -1 -42 -6 -89 -10 -47 -3 -95 -8 -105 -10 -11 -2 -33
-4 -51 -4 -17 -1 -38 -7 -46 -15 -11 -12 -36 -98 -64 -226 -2 -8 -20 -80 -41
-160 l-37 -145 -100 -27 c-55 -15 -109 -30 -120 -33 -16 -5 -58 34 -213 194
l-193 199 -67 -27 c-185 -77 -441 -215 -617 -335 -49 -33 -92 -63 -95 -66 -3
-3 -31 -25 -63 -49 -38 -29 -56 -49 -53 -60 80 -270 144 -513 139 -523 -3 -7
-43 -48 -88 -91 l-83 -79 -123 36 c-68 20 -164 48 -213 62 -48 14 -95 27 -105
29 -9 2 -32 9 -51 15 -33 10 -37 8 -62 -22 -148 -176 -374 -562 -471 -805
l-25 -62 199 -193 199 -193 -32 -122 -33 -121 -89 -22 c-49 -12 -96 -23 -105
-25 -9 -3 -79 -20 -156 -39 -77 -20 -150 -38 -162 -41 -22 -5 -24 -11 -38
-105 -27 -194 -27 -695 1 -833 2 -12 5 -39 6 -60 1 -23 7 -41 17 -46 9 -5 130
-37 269 -71 172 -43 256 -68 262 -79 4 -9 11 -32 14 -51 3 -19 15 -66 26 -105
l21 -70 -200 -195 -200 -195 33 -75 c114 -264 255 -509 419 -728 49 -66 74
-91 85 -88 10 3 130 37 268 76 l251 70 84 -85 c46 -48 85 -89 87 -93 1 -4 -18
-77 -43 -162 -25 -85 -47 -162 -49 -170 -2 -8 -16 -55 -30 -104 -14 -49 -23
-92 -20 -97 8 -14 253 -189 264 -189 5 0 10 -4 10 -10 0 -5 4 -10 10 -10 5 0
40 -19 77 -43 86 -55 273 -153 383 -201 47 -21 99 -44 115 -52 l30 -14 195
201 195 200 86 -25 c48 -13 102 -28 121 -31 l34 -6 34 -137 c19 -75 35 -141
36 -147 8 -42 56 -224 63 -240 5 -13 19 -21 37 -23 16 -1 45 -4 64 -7 233 -31
716 -26 907 10 29 5 34 11 45 53 7 26 37 146 68 267 l55 220 120 33 120 33
195 -200 195 -200 80 35 c210 92 381 184 558 301 107 71 257 180 257 187 0 3
-34 123 -75 268 l-76 262 89 89 89 88 263 -75 c144 -41 267 -73 271 -70 8 4
142 188 176 240 7 11 25 37 39 59 79 119 218 386 277 532 l25 63 -199 192
-199 193 20 70 c11 39 25 92 32 120 l13 49 185 48 c102 26 196 50 210 53 70
14 134 35 141 47 5 7 9 29 10 48 0 19 2 44 5 55 26 129 25 637 -2 840 -12 87
-11 87 -71 100 -10 2 -122 30 -248 62 l-231 57 -32 121 -32 120 200 195 199
195 -58 130 c-115 257 -226 447 -393 673 -59 80 -73 93 -91 88 -12 -4 -29 -9
-37 -11 -8 -2 -118 -34 -244 -70 l-229 -66 -89 88 c-69 68 -88 92 -83 108 3
11 7 27 10 35 2 8 24 87 49 175 26 88 48 167 50 176 2 8 11 39 20 68 9 30 13
57 10 62 -10 17 -217 162 -338 238 -123 77 -373 206 -493 254 l-62 25 -193
-199 -193 -198 -118 31 c-125 33 -129 36 -141 101 -9 47 -106 426 -116 451 -5
14 -13 25 -17 24 -8 -2 -152 12 -188 19 -26 4 -532 12 -537 8z m273 -654 c9 0
41 -17 70 -38 61 -41 411 -295 419 -303 14 -15 117 -80 127 -80 23 0 221 -70
328 -115 683 -291 1211 -892 1418 -1615 27 -91 63 -259 71 -325 3 -22 8 -67
13 -100 16 -122 9 -471 -13 -640 -9 -72 -63 -298 -95 -395 -188 -579 -575
-1068 -1095 -1381 -264 -160 -599 -284 -874 -324 -19 -3 -44 -7 -55 -10 -95
-20 -492 -28 -626 -13 -387 44 -751 170 -1076 374 -59 38 -112 72 -118 76 -5
5 -46 36 -90 70 -107 84 -133 106 -248 223 -314 318 -545 737 -648 1170 -12
50 -23 101 -25 115 -2 14 -7 41 -10 60 -7 37 -9 50 -21 145 -10 78 -10 453 0
530 4 33 11 83 14 110 3 28 7 53 9 56 2 4 6 24 10 45 25 166 137 495 222 654
76 142 102 184 163 275 319 469 767 807 1299 981 58 18 110 34 116 34 9 0 160
104 274 190 163 121 297 214 328 225 20 7 51 12 67 10 17 -1 37 -3 46 -4z"/>
<path d="M3435 6104 c-33 -24 -94 -68 -135 -98 -41 -30 -131 -95 -200 -146
-69 -50 -167 -121 -218 -158 l-93 -67 95 -3 95 -3 1 -259 0 -260 -23 -1 c-12
0 -64 -1 -114 -1 -78 -1 -93 -4 -94 -17 0 -9 -1 -99 -1 -201 l0 -185 79 -51
c78 -51 80 -52 77 -90 -8 -139 -16 -257 -19 -304 -2 -30 -7 -104 -10 -165 -3
-60 -8 -137 -11 -170 -2 -33 -7 -98 -9 -145 -6 -122 -15 -266 -20 -330 -6 -86
-16 -237 -30 -480 -4 -69 -9 -141 -10 -160 -2 -19 -6 -87 -9 -150 -4 -63 -8
-140 -11 -170 -2 -30 -7 -100 -10 -155 -3 -55 -7 -127 -10 -160 -3 -33 -7
-105 -10 -160 -3 -55 -8 -131 -10 -170 -12 -165 -27 -416 -29 -485 l-1 -35
100 -32 c149 -49 340 -86 505 -99 285 -23 586 8 850 87 143 43 139 40 135 96
-3 27 -7 95 -10 153 -13 222 -14 247 -20 325 -3 44 -7 123 -10 175 -3 52 -7
122 -10 155 -3 33 -7 103 -10 155 -3 52 -7 120 -10 150 -2 30 -7 107 -10 170
-3 63 -8 140 -10 170 -6 76 -24 361 -40 625 -3 50 -8 122 -10 160 -3 39 -7
111 -10 160 -3 50 -7 119 -10 155 -3 36 -7 110 -10 165 -3 55 -7 120 -10 145
-2 25 -7 101 -11 170 -3 69 -7 140 -8 158 -3 31 2 36 76 84 43 28 78 53 79 57
0 9 0 288 0 347 l-1 51 -106 -1 c-58 -1 -109 1 -113 4 -5 3 -8 120 -8 260 l1
255 93 5 94 5 -218 159 c-120 88 -276 202 -346 253 -71 52 -134 96 -140 98 -7
2 -39 -17 -72 -41z m-198 -750 l0 -284 -84 0 c-45 0 -84 3 -84 8 -1 4 -2 131
-3 284 l-1 276 86 0 86 0 0 -284z m433 0 l0 -284 -170 0 -170 0 0 284 0 285
170 0 170 -1 0 -284z m264 12 c-1 -149 -2 -277 -3 -283 -1 -9 -25 -13 -84 -13
l-84 0 0 278 c0 152 1 280 4 284 2 4 41 7 86 6 l82 -1 -1 -271z"/>
</g>
</svg>
